<?xml version="1.0" encoding="UTF-8"?>
<svg width="16px" height="15px" viewBox="0 0 16 15" version="1.1" xmlns="http://www.w3.org/2000/svg" xmlns:xlink="http://www.w3.org/1999/xlink">
    <!-- Generator: sketchtool 48.2 (47327) - http://www.bohemiancoding.com/sketch -->
    <title>62D70D75-2523-420D-8FA8-6F1920A6CC44</title>
    <desc>Created with sketchtool.</desc>
    <defs></defs>
    <g id="Flower-Detail" stroke="none" stroke-width="1" fill="none" fill-rule="evenodd" transform="translate(-40.000000, -1224.000000)">
        <g id="Sighting" transform="translate(20.000000, 761.000000)" fill="#D4D8D9">
            <g id="pl-icon-comment" transform="translate(20.000000, 463.000000)">
                <path d="M8,0 C3.58866667,0 0,3.18801807 0,7.1056094 C0,8.47528617 0.438666667,9.80121486 1.27066667,10.948533 C1.11333333,12.6678654 0.691333333,13.9451121 0.078,14.5503487 C-0.00266666667,14.6299504 -0.0233333333,14.7533003 0.0286666667,14.8532959 C0.073,14.9447393 0.166666667,15 0.267,15 C0.278666667,15 0.291666667,14.9986843 0.303333333,14.9973685 C0.411333333,14.9819087 2.92066667,14.6260032 4.73566667,13.5918381 C5.76566667,14.0030043 6.86333333,14.2095741 8,14.2095741 C12.4113333,14.2095741 16,11.0232007 16,7.1056094 C16,3.18801807 12.4113333,0 8,0 Z M4.267,8.15786588 C3.67833333,8.15786588 3.20066667,7.68617604 3.20066667,7.1056094 C3.20066667,6.52471383 3.67833333,6.05335292 4.267,6.05335292 C4.85533333,6.05335292 5.33333333,6.52471383 5.33333333,7.1056094 C5.33333333,7.68617604 4.85533333,8.15786588 4.267,8.15786588 Z M8,8.15786588 C7.41133333,8.15786588 6.93366667,7.68617604 6.93366667,7.1056094 C6.93366667,6.52471383 7.41133333,6.05335292 8,6.05335292 C8.58866667,6.05335292 9.06633333,6.52471383 9.06633333,7.1056094 C9.06633333,7.68617604 8.58866667,8.15786588 8,8.15786588 Z M11.733,8.15786588 C11.1446667,8.15786588 10.6666667,7.68617604 10.6666667,7.1056094 C10.6666667,6.52471383 11.1446667,6.05335292 11.733,6.05335292 C12.3216667,6.05335292 12.7993333,6.52471383 12.7993333,7.1056094 C12.7993333,7.68617604 12.3216667,8.15786588 11.733,8.15786588 Z" id="001-chat"></path>
            </g>
        </g>
    </g>
</svg>