<?xml version="1.0" encoding="UTF-8"?>
<svg width="18px" height="15px" viewBox="0 0 18 15" version="1.1" xmlns="http://www.w3.org/2000/svg" xmlns:xlink="http://www.w3.org/1999/xlink">
    <!-- Generator: sketchtool 48.2 (47327) - http://www.bohemiancoding.com/sketch -->
    <title>D1DC3660-C1ED-4D8B-BB42-E4EA9C39377F</title>
    <desc>Created with sketchtool.</desc>
    <defs></defs>
    <g id="Flower-Detail" stroke="none" stroke-width="1" fill="none" fill-rule="evenodd" transform="translate(-162.000000, -1224.000000)">
        <g id="Sighting" transform="translate(20.000000, 761.000000)" fill="#D4D8D9">
            <g id="pl-icon-favorite" transform="translate(142.000000, 463.000000)">
                <path d="M18,4.67599847 C18,2.09354838 15.8236118,0 13.1390191,0 C11.3860813,0 9.85521189,0.895609593 8.99990867,2.23412574 C8.14474245,0.895609593 6.61318802,0 4.86029591,0 C2.17570324,0 0,2.09354838 0,4.67599847 C0,6.08212354 0.647710667,7.34015915 1.66836642,8.19680245 L8.55627435,14.8234436 C8.67399842,14.9365205 8.83346018,15 8.99990867,15 C9.1663115,15 9.32581892,14.9365205 9.44354299,14.8234436 L16.3314509,8.19680245 C17.3522893,7.34015915 18,6.08212354 18,4.67599847 Z" id="002-valentines-heart"></path>
            </g>
        </g>
    </g>
</svg>