<?xml version="1.0" encoding="UTF-8"?>
<svg width="151px" height="27px" viewBox="0 0 151 27" version="1.1" xmlns="http://www.w3.org/2000/svg" xmlns:xlink="http://www.w3.org/1999/xlink">
    <!-- Generator: sketchtool 48.2 (47327) - http://www.bohemiancoding.com/sketch -->
    <title>7A73619A-44D5-444F-8D2C-F977E9458750</title>
    <desc>Created with sketchtool.</desc>
    <defs></defs>
    <g id="Flower-Detail" stroke="none" stroke-width="1" fill="none" fill-rule="evenodd" transform="translate(-20.000000, -27.000000)">
        <g id="Navigation" transform="translate(0.000000, -1.000000)">
            <g id="pl-logo" transform="translate(20.000000, 28.000000)">
                <g id="Page-1">
                    <polygon id="Fill-1" fill="#DF9186" points="40.115071 22.1974393 40.115071 5.62483929 50.4832813 5.62483929 50.4832813 8.18366786 43.0977068 8.18366786 43.0977068 12.4164964 49.6547713 12.4164964 49.6547713 14.975325 43.0977068 14.975325 43.0977068 22.1974393"></polygon>
                    <path d="M57.3236172,22.4367814 C56.4714356,22.4208386 55.7652295,22.3251814 55.2049989,22.14981 C54.6447684,21.9744386 54.1989511,21.7233386 53.8675471,21.39651 C53.5361432,21.0696814 53.3033713,20.6631386 53.1692316,20.1768814 C53.0350919,19.6906243 52.9680221,19.13661 52.9680221,18.5148386 L52.9680221,4.11843857 L55.8322993,3.64015286 L55.8322993,17.96481 C55.8322993,18.3155529 55.8599163,18.6104957 55.9151503,18.8496386 C55.9703843,19.0887814 56.0690164,19.2920529 56.2110467,19.4594529 C56.353077,19.6268529 56.546396,19.7543957 56.7910037,19.8420814 C57.0356114,19.9297671 57.3472889,19.9975243 57.7260363,20.0453529 L57.3236172,22.4367814 Z" id="Fill-2" fill="#DF9186"></path>
                    <path d="M68.3070948,15.9316971 C68.3070948,14.6881543 68.0427606,13.7036829 67.5140924,12.9782829 C66.9854241,12.2528829 66.2476557,11.8901829 65.3007872,11.8901829 C64.3539187,11.8901829 63.6161503,12.2528829 63.0874821,12.9782829 C62.5588138,13.7036829 62.2944797,14.6881543 62.2944797,15.9316971 C62.2944797,17.1911829 62.5588138,18.1876114 63.0874821,18.9209829 C63.6161503,19.6543543 64.3539187,20.02104 65.3007872,20.02104 C66.2476557,20.02104 66.9854241,19.6543543 67.5140924,18.9209829 C68.0427606,18.1876114 68.3070948,17.1911829 68.3070948,15.9316971 M71.2423872,15.9316971 C71.2423872,16.9201543 71.1003569,17.8209257 70.8162963,18.6340114 C70.5322358,19.4470971 70.1298166,20.1406114 69.609039,20.7145543 C69.0882613,21.2884971 68.4609609,21.7348971 67.7271378,22.0537543 C66.9933147,22.3726114 66.1845312,22.53204 65.3007872,22.53204 C64.4170433,22.53204 63.612205,22.3726114 62.8862725,22.0537543 C62.16034,21.7348971 61.5369849,21.2884971 61.0162072,20.7145543 C60.4954295,20.1406114 60.0890651,19.4470971 59.797114,18.6340114 C59.5051628,17.8209257 59.3591873,16.9201543 59.3591873,15.9316971 C59.3591873,14.94324 59.5051628,14.0464543 59.797114,13.24134 C60.0890651,12.4362257 60.4993748,11.7466971 61.028043,11.1727543 C61.5567113,10.5988114 62.1840117,10.1563971 62.9099442,9.84551143 C63.6358767,9.53462571 64.4328244,9.37918286 65.3007872,9.37918286 C66.16875,9.37918286 66.969643,9.53462571 67.7034661,9.84551143 C68.4372892,10.1563971 69.0645896,10.5988114 69.5853672,11.1727543 C70.1061449,11.7466971 70.5125093,12.4362257 70.8044605,13.24134 C71.0964116,14.0464543 71.2423872,14.94324 71.2423872,15.9316971" id="Fill-4" fill="#DF9186"></path>
                    <path d="M81.3391618,14.3290414 C80.9761955,15.7320129 80.5875849,17.0991129 80.1693846,18.4303414 C79.7511844,19.76157 79.3369294,21.01707 78.9266197,22.1968414 L76.5752295,22.1968414 C76.2596067,21.4654629 75.9262301,20.62647 75.579045,19.6858414 C75.2318598,18.7452129 74.8846747,17.7408129 74.5355169,16.6726414 C74.1883318,15.60447 73.8411467,14.4804986 73.4919889,13.3007271 C73.1448038,12.1209557 72.8055093,10.9192629 72.4721326,9.68967 L75.5040845,9.68967 C75.6480875,10.35927 75.8137894,11.0806843 76.0031631,11.8539129 C76.1945095,12.6271414 76.3917738,13.4163129 76.5989013,14.2214271 C76.8060287,15.0265414 77.0190742,15.8117271 77.2400101,16.5769843 C77.4629188,17.3422414 77.6838548,18.0437271 77.9067634,18.6814414 C78.1434805,17.94807 78.378225,17.1927771 78.6070516,16.4095843 C78.8358781,15.6283843 79.0528688,14.8471843 79.2599963,14.0659843 C79.4651512,13.2867771 79.6584701,12.5235129 79.8399533,11.78217 C80.0234091,11.0408271 80.1851658,10.3433271 80.327196,9.68967 L82.530638,9.68967 C82.6706956,10.3433271 82.828507,11.0408271 83.0001269,11.78217 C83.1737195,12.5235129 83.3571753,13.2867771 83.5544396,14.0659843 C83.7536765,14.8471843 83.9647493,15.6283843 84.1935758,16.4095843 C84.4204297,17.1927771 84.6551742,17.94807 84.8899187,18.6814414 C85.0950735,18.0437271 85.3100916,17.3422414 85.5330002,16.5769843 C85.7539362,15.8117271 85.9728996,15.0265414 86.185945,14.2214271 C86.400963,13.4163129 86.6041452,12.6271414 86.7935189,11.8539129 C86.9828926,11.0806843 87.1485946,10.35927 87.2945702,9.68967 L90.2535343,9.68967 C89.9221303,10.9192629 89.5808631,12.1209557 89.233678,13.3007271 C88.8845202,14.4804986 88.5353625,15.60447 88.19015,16.6726414 C87.8409922,17.7408129 87.4938071,18.7452129 87.1446494,19.6858414 C86.7994369,20.62647 86.4581697,21.4654629 86.1267657,22.1968414 L83.7970746,22.1968414 C83.3887376,21.01707 82.966592,19.76157 82.5326106,18.4303414 C82.0986292,17.0991129 81.702128,15.7320129 81.3391618,14.3290414" id="Fill-6" fill="#DF9186"></path>
                    <path d="M99.4590689,12.2973236 C99.2223518,12.2176093 98.8948931,12.1339093 98.4766928,12.0462236 C98.0584926,11.9585379 97.5732225,11.914695 97.0208825,11.914695 C96.7052597,11.914695 96.3699104,11.9465807 96.0148347,12.0103521 C95.659759,12.0741236 95.411206,12.1299236 95.2691757,12.1777521 L95.2691757,22.1978379 L92.4048985,22.1978379 L92.4048985,10.2885236 C92.9572385,10.0812664 93.6476634,9.88596643 94.4761734,9.70262357 C95.3046833,9.51928071 96.2239348,9.42760929 97.2339279,9.42760929 C97.4233016,9.42760929 97.6442376,9.43956643 97.8967359,9.46348071 C98.1492342,9.487395 98.4017324,9.51928071 98.6542307,9.55913786 C98.906729,9.598995 99.1513367,9.64682357 99.3880538,9.70262357 C99.6247709,9.75842357 99.8141446,9.81023786 99.9561749,9.85806643 L99.4590689,12.2973236 Z" id="Fill-8" fill="#DF9186"></path>
                    <path d="M106.062688,19.9496957 C107.135805,19.9496957 107.916972,19.7663529 108.406187,19.3996671 C108.897375,19.0329814 109.141983,18.5148386 109.141983,17.8452386 C109.141983,17.4466671 109.059132,17.1038957 108.89343,16.8169243 C108.727728,16.5299529 108.489038,16.2708814 108.181306,16.03971 C107.873574,15.8085386 107.500744,15.59331 107.0569,15.3940243 C106.615028,15.1947386 106.110031,14.9994386 105.54191,14.8081243 C104.973789,14.6008671 104.425394,14.3736814 103.896726,14.1265671 C103.368058,13.8794529 102.902514,13.5725529 102.500095,13.2058671 C102.097676,12.8391814 101.774162,12.4007529 101.529555,11.8905814 C101.284947,11.38041 101.164616,10.76661 101.164616,10.0491814 C101.164616,8.55055286 101.67553,7.37476714 102.701305,6.52182429 C103.727079,5.66888143 105.12371,5.24241 106.891198,5.24241 C107.916972,5.24241 108.828333,5.35799571 109.627253,5.58916714 C110.422228,5.82033857 111.049529,6.07143857 111.509154,6.34246714 L110.583985,8.78172429 C110.049399,8.47881 109.461551,8.24763857 108.820442,8.08821 C108.181306,7.92878143 107.522443,7.84906714 106.843854,7.84906714 C106.039016,7.84906714 105.411716,8.01646714 104.961953,8.35126714 C104.512191,8.68606714 104.289282,9.15638143 104.289282,9.76221 C104.289282,10.1288957 104.36227,10.4437671 104.512191,10.7068243 C104.662111,10.9698814 104.875157,11.2050386 105.151327,11.4122957 C105.427497,11.6195529 105.75101,11.8108671 106.121867,11.9862386 C106.492724,12.16161 106.899088,12.32901 107.34096,12.4884386 C108.114236,12.77541 108.806634,13.0663671 109.412235,13.36131 C110.019809,13.6562529 110.534669,14.0069957 110.952869,14.4135386 C111.369097,14.8200814 111.690638,15.2983671 111.909601,15.8483957 C112.130537,16.3984243 112.241005,17.0640386 112.241005,17.8452386 C112.241005,19.3438671 111.716282,20.50371 110.666836,21.3247671 C109.61739,22.1458243 108.082674,22.5563529 106.062688,22.5563529 C105.384099,22.5563529 104.764689,22.51251 104.206431,22.4248243 C103.644228,22.3371386 103.147122,22.2295243 102.715113,22.1019814 C102.279159,21.9744386 101.90633,21.84291 101.588734,21.7073957 C101.273111,21.5718814 101.020613,21.4483243 100.833212,21.3367243 L101.707093,18.8735529 C102.133183,19.1126957 102.709195,19.3518386 103.435128,19.5909814 C104.16106,19.8301243 105.036914,19.9496957 106.062688,19.9496957" id="Fill-10" fill="#DF9186"></path>
                    <path d="M122.942,16.0038386 C122.942,14.7124671 122.653994,13.7080671 122.079955,12.9906386 C121.501971,12.27321 120.574829,11.9144957 119.296556,11.9144957 C119.028277,11.9144957 118.748161,11.9264529 118.458183,11.9503671 C118.164259,11.9742814 117.876253,12.0260957 117.592193,12.10581 L117.592193,19.2561814 C117.844691,19.4315529 118.18004,19.5949671 118.598241,19.7464243 C119.016441,19.8978814 119.462258,19.97361 119.937665,19.97361 C120.977248,19.97361 121.738688,19.6148957 122.220013,18.8974671 C122.701338,18.1800386 122.942,17.2154957 122.942,16.0038386 M125.877292,15.95601 C125.877292,16.9125814 125.754988,17.7894386 125.510381,18.5865814 C125.265773,19.3837243 124.914643,20.0692671 124.458962,20.64321 C123.999336,21.2171529 123.42727,21.6635529 122.74079,21.98241 C122.054311,22.3012671 121.277089,22.4606957 120.409127,22.4606957 C119.825224,22.4606957 119.288666,22.3889529 118.79945,22.2454671 C118.310235,22.1019814 117.907816,21.9425529 117.592193,21.7671814 L117.592193,26.6217814 L114.727916,26.6217814 L114.727916,10.09701 C115.311818,9.93758143 116.02986,9.78612429 116.882041,9.64263857 C117.734223,9.49915286 118.633748,9.42741 119.580617,9.42741 C120.559047,9.42741 121.434901,9.57886714 122.208177,9.88178143 C122.981453,10.1846957 123.640315,10.6191386 124.184765,11.18511 C124.729214,11.7510814 125.147415,12.4366243 125.439366,13.2417386 C125.731317,14.0468529 125.877292,14.95161 125.877292,15.95601" id="Fill-12" fill="#DF9186"></path>
                    <path d="M137.09729,15.9316971 C137.09729,14.6881543 136.830983,13.7036829 136.304287,12.9782829 C135.773646,12.2528829 135.037851,11.8901829 134.090982,11.8901829 C133.144114,11.8901829 132.406345,12.2528829 131.877677,12.9782829 C131.349009,13.7036829 131.084675,14.6881543 131.084675,15.9316971 C131.084675,17.1911829 131.349009,18.1876114 131.877677,18.9209829 C132.406345,19.6543543 133.144114,20.02104 134.090982,20.02104 C135.037851,20.02104 135.773646,19.6543543 136.304287,18.9209829 C136.830983,18.1876114 137.09729,17.1911829 137.09729,15.9316971 M140.030609,15.9316971 C140.030609,16.9201543 139.890552,17.8209257 139.604519,18.6340114 C139.322431,19.4470971 138.920012,20.1406114 138.399234,20.7145543 C137.878456,21.2884971 137.251156,21.7348971 136.517333,22.0537543 C135.78351,22.3726114 134.974726,22.53204 134.090982,22.53204 C133.205266,22.53204 132.400427,22.3726114 131.676467,22.0537543 C130.950535,21.7348971 130.325207,21.2884971 129.806402,20.7145543 C129.285624,20.1406114 128.87926,19.4470971 128.587309,18.6340114 C128.293385,17.8209257 128.149382,16.9201543 128.149382,15.9316971 C128.149382,14.94324 128.293385,14.0464543 128.587309,13.24134 C128.87926,12.4362257 129.28957,11.7466971 129.818238,11.1727543 C130.344934,10.5988114 130.974207,10.1563971 131.700139,9.84551143 C132.426072,9.53462571 133.221047,9.37918286 134.090982,9.37918286 C134.958945,9.37918286 135.757865,9.53462571 136.491688,9.84551143 C137.225511,10.1563971 137.854785,10.5988114 138.37359,11.1727543 C138.89634,11.7466971 139.300732,12.4362257 139.594655,13.24134 C139.886607,14.0464543 140.030609,14.94324 140.030609,15.9316971" id="Fill-14" fill="#DF9186"></path>
                    <path d="M142.849516,6.38989714 L145.713793,5.91161143 L145.713793,9.69006857 L150.118704,9.69006857 L150.118704,12.1054114 L145.713793,12.1054114 L145.713793,17.1991543 C145.713793,18.2035543 145.871605,18.9209829 146.187227,19.35144 C146.504823,19.7818971 147.039409,19.9971257 147.798877,19.9971257 C148.317682,19.9971257 148.781253,19.9413257 149.181699,19.8297257 C149.584118,19.7181257 149.903686,19.6144971 150.140404,19.51884 L150.61581,21.8146114 C150.284406,21.9580971 149.848452,22.1055686 149.311894,22.2570257 C148.775335,22.4084829 148.146062,22.4842114 147.418157,22.4842114 C146.534413,22.4842114 145.796644,22.36464 145.204851,22.1254971 C144.615031,21.8863543 144.14357,21.5395971 143.796384,21.0852257 C143.451172,20.6308543 143.206564,20.0808257 143.062561,19.43514 C142.920531,18.7894543 142.849516,18.0520971 142.849516,17.2230686 L142.849516,6.38989714 Z" id="Fill-16" fill="#DF9186"></path>
                    <path d="M16.4279715,22.0914193 C17.8384111,20.2480264 20.2055823,16.4954764 20.2055823,12.0952479 C20.2055823,11.7245764 20.1858559,11.3479264 20.1503483,10.9453693 L20.1030049,10.447155 L20.5409316,10.210005 C23.8589167,8.40646929 27.5655124,8.31479786 28.2736912,8.31479786 C28.3940224,8.31479786 28.4610922,8.31679071 28.4610922,8.31679071 L29.1594077,8.34469071 L29.1811068,9.05016214 C29.19097,9.31919786 29.3428635,15.7102907 25.4390035,19.6521621 C22.9771454,22.1392479 19.550665,23.0101264 17.1085332,23.3030764 L15.3390727,23.5163121 L16.4279715,22.0914193 Z" id="Fill-19" fill="#EAA79E"></path>
                    <path d="M14.7624692,23.3602714 L14.9991864,22.6428429 L14.7427428,23.3542929 L14.4803813,23.2646143 L14.3521595,23.1231214 C13.5808562,22.2701786 9.72828495,17.7364286 9.72828495,12.09465 C9.72828495,6.01643571 14.233801,1.18973571 14.42712,0.988457143 L14.9676241,0.4185 L15.5061555,0.988457143 C15.6994745,1.18973571 20.2049905,6.01643571 20.2049905,12.09465 C20.2049905,17.9436857 16.0229879,22.6428429 15.5456084,23.1589929 L15.2181497,23.5137214 L14.7624692,23.3602714 Z" id="Fill-21" fill="#ECBCB3"></path>
                    <path d="M8.95145823,9.99118929 C8.14859264,9.59461071 7.29641097,9.26778214 6.41661231,9.018675 L5.79720249,8.84131071 L5.8761082,8.19761786 C6.15622347,5.90383929 6.76774272,4.27168929 6.79338707,4.20393214 L7.07547499,3.45860357 L7.79746223,3.78343929 C7.85072358,3.80735357 9.13688665,4.39126071 10.7110556,5.545125 L11.194353,5.89786071 L10.9596085,6.45386786 C10.537463,7.44830357 10.2198675,8.460675 10.01274,9.46706786 L9.81547576,10.4196536 L8.95145823,9.99118929 Z" id="Fill-23" fill="#E89489"></path>
                    <path d="M19.9185628,9.45790071 C19.7114353,8.45748643 19.3938399,7.44710786 18.9736669,6.45665786 L18.7389225,5.90065071 L19.2222199,5.54592214 C20.7963888,4.39405071 22.0805793,3.81014357 22.1338406,3.78423643 L22.8558279,3.45740786 L23.1379158,4.20472929 C23.1655328,4.27248643 23.7731067,5.90264357 24.0551947,8.19442929 L24.1341004,8.840115 L23.5146905,9.01548643 C22.6210834,9.26857929 21.7669291,9.593415 20.977872,9.984015 L20.1138545,10.4104864 L19.9185628,9.45790071 Z" id="Fill-25" fill="#E89489"></path>
                    <path d="M12.824545,23.3038736 C10.3824133,23.0109236 6.95396019,22.140045 4.49210205,19.6509664 C0.590214708,15.709095 0.742108199,9.319995 0.74999877,9.04896643 L0.773670483,8.343495 L1.47395866,8.31758786 C1.47395866,8.31758786 1.53905587,8.315595 1.65938707,8.315595 C2.36756582,8.315595 6.06429832,8.40726643 9.39214662,10.2167807 L9.82810067,10.4539307 L9.78272989,10.952145 C9.74524967,11.3507164 9.72946853,11.7253736 9.72946853,12.0940521 C9.72946853,16.4962736 12.0946672,20.2468307 13.5051067,22.0922164 L14.5940055,23.5171093 L12.824545,23.3038736 Z" id="Fill-27" fill="#EAA79E"></path>
                    <path d="M24.9109271,19.1176779 C22.5437558,21.5091064 19.1665914,22.296285 17.0203561,22.5533636 C18.4524947,20.6820707 20.9538057,16.7501636 20.9538057,12.0948493 C20.9538057,11.6823279 20.9321067,11.275785 20.8946265,10.8752207 C23.9936482,9.19125643 27.4891711,9.071685 28.2742829,9.071685 C28.3768604,9.071685 28.434067,9.071685 28.434067,9.071685 C28.434067,9.071685 28.6293586,15.3611421 24.9109271,19.1176779 M14.9983973,22.6430421 C14.9688077,22.6330779 14.9411907,22.6251064 14.9056831,22.6111564 C14.3789875,22.031235 10.4771001,17.5453136 10.4771001,12.0948493 C10.4771001,6.24979929 14.966835,1.51277786 14.966835,1.51277786 C14.966835,1.51277786 19.4565699,6.24979929 19.4565699,12.0948493 C19.4565699,17.7047421 15.3337466,22.2803421 14.9983973,22.6430421 M5.02077031,19.1176779 C1.30431138,15.3611421 1.49960301,9.07367786 1.49960301,9.07367786 C1.49960301,9.07367786 1.55483701,9.071685 1.65938707,9.071685 C2.44449889,9.071685 5.94002182,9.197235 9.03707093,10.8831921 C9.00156336,11.2817636 8.97986429,11.6863136 8.97986429,12.0948493 C8.97986429,16.7501636 11.4792026,20.6820707 12.9113413,22.5533636 C10.7670786,22.296285 7.38991424,21.5091064 5.02077031,19.1176779 M7.49249166,4.47416357 C7.49249166,4.47416357 8.74314716,5.03814214 10.2719453,6.156135 C9.8616356,7.12267071 9.51247783,8.18287071 9.27970599,9.31282071 C8.38609882,8.87040643 7.48657373,8.53560643 6.61861093,8.290485 C6.89280827,6.06247071 7.49249166,4.47416357 7.49249166,4.47416357 M22.4411784,4.47416357 C22.4411784,4.47416357 23.0388891,6.06047786 23.3130865,8.28649929 C22.4470963,8.53162071 21.5455986,8.862435 20.6519914,9.30285643 C20.4192195,8.178885 20.0720344,7.12267071 19.6617247,6.15812786 C21.1905229,5.040135 22.4411784,4.47416357 22.4411784,4.47416357 M28.4814104,7.56109929 L28.2742829,7.55910643 C27.7890128,7.55910643 26.4456431,7.606935 24.7846779,7.93376357 C24.4868089,5.66589214 23.8851528,4.05566357 23.8358368,3.92612786 C23.6878886,3.54150643 23.3900195,3.23460643 23.0132448,3.07717071 C22.829789,3.00144214 22.6344973,2.96357786 22.4411784,2.96357786 C22.2360235,2.96357786 22.0308687,3.00542786 21.8375497,3.09112071 C21.7270817,3.13894929 20.5178517,3.69097071 19.0107526,4.76312786 C17.689082,2.222235 16.1602839,0.586099286 16.0478432,0.466527857 C15.7657553,0.167599286 15.3751721,0.000199285714 14.966835,0.000199285714 C14.558498,0.000199285714 14.1679147,0.167599286 13.8858268,0.466527857 C13.7733862,0.584106429 12.2426154,2.22422786 10.9209447,4.76711357 C9.41581834,3.69694929 8.20461569,3.13894929 8.09612034,3.09112071 C7.90280135,3.00542786 7.69961915,2.96357786 7.49249166,2.96357786 C7.29917267,2.96357786 7.10388104,3.00144214 6.92042527,3.07717071 C6.5436505,3.23460643 6.24775409,3.54150643 6.09783324,3.92612786 C6.04851718,4.05367071 5.44686114,5.66389929 5.14899208,7.93376357 C3.4880269,7.60494214 2.14465719,7.55910643 1.66135972,7.55910643 L1.45225959,7.56109929 C0.66320249,7.58899929 0.0280115269,8.23069929 0.00236717129,9.02584929 C-0.00552339968,9.308835 -0.165307462,16.0147993 3.9634338,20.1878421 C7.73512672,23.998185 13.6550276,24.1894993 14.8031057,24.1894993 L14.9569718,24.1875064 C14.9609171,24.1875064 14.9628897,24.1894993 14.9648624,24.1894993 C14.9688077,24.1894993 14.9707803,24.1875064 14.9747256,24.1875064 L15.1285917,24.1894993 C16.2766698,24.1894993 22.1965707,23.998185 25.9682636,20.1878421 C30.0970048,16.0147993 29.9372208,9.308835 29.9273576,9.02584929 C29.9056585,8.23069929 29.2684949,7.58899929 28.4814104,7.56109929" id="Fill-29" fill="#BD7C73"></path>
                </g>
            </g>
        </g>
    </g>
</svg>