<?xml version="1.0" encoding="UTF-8"?>
<svg width="10px" height="13px" viewBox="0 0 10 13" version="1.1" xmlns="http://www.w3.org/2000/svg" xmlns:xlink="http://www.w3.org/1999/xlink">
    <!-- Generator: sketchtool 48.2 (47327) - http://www.bohemiancoding.com/sketch -->
    <title>6A1348A4-2DFF-4945-92D0-0C2FFD188444</title>
    <desc>Created with sketchtool.</desc>
    <defs>
        <polygon id="path-1" points="0.00150753769 13 0.00150753769 2.5390625e-05 9.99238693 2.5390625e-05 9.99238693 13"></polygon>
    </defs>
    <g id="Flower-Detail" stroke="none" stroke-width="1" fill="none" fill-rule="evenodd" transform="translate(-50.000000, -787.000000)">
        <g id="Sighting" transform="translate(20.000000, 761.000000)">
            <g id="Group" transform="translate(20.000000, 20.000000)">
                <g id="pl-icon-location" transform="translate(10.000000, 6.000000)">
                    <g id="maps-and-flags">
                        <g id="Group-3">
                            <mask id="mask-2" fill="white">
                                <use xlink:href="#path-1"></use>
                            </mask>
                            <g id="Clip-2"></g>
                            <path d="M9.99238693,5.04890039 C9.99238693,9.09169727 5.47603015,12.8359258 5.47603015,12.8359258 C5.21213568,13.0547168 4.78025126,13.0547168 4.51635678,12.8359258 C4.51635678,12.8359258 0,9.09169727 0,5.04890039 C2.51256281e-05,2.26047656 2.23690955,2.5390625e-05 4.99620603,2.5390625e-05 C7.75550251,2.5390625e-05 9.99238693,2.26047656 9.99238693,5.04890039" id="Fill-1" fill="#DF9186" mask="url(#mask-2)"></path>
                        </g>
                        <path d="M4.99620603,7.5890293 C3.61017588,7.5890293 2.48258794,6.44952344 2.48258794,5.04892578 C2.48258794,3.64830273 3.61020101,2.50877148 4.99620603,2.50877148 C6.38218593,2.50877148 7.50979899,3.64827734 7.50979899,5.04890039 C7.50979899,6.44949805 6.38223618,7.5890293 4.99620603,7.5890293" id="Fill-4" fill="#FBDDCE"></path>
                    </g>
                </g>
            </g>
        </g>
    </g>
</svg>