<?xml version="1.0" encoding="UTF-8"?>
<svg width="60px" height="60px" viewBox="0 0 60 60" version="1.1" xmlns="http://www.w3.org/2000/svg" xmlns:xlink="http://www.w3.org/1999/xlink">
    <!-- Generator: sketchtool 48.2 (47327) - http://www.bohemiancoding.com/sketch -->
    <title>DF922C59-4321-4E12-BF2A-CAAD88CFBBDB</title>
    <desc>Created with sketchtool.</desc>
    <defs>
        <circle id="path-1" cx="15" cy="15" r="15"></circle>
        <filter x="-83.3%" y="-66.7%" width="266.7%" height="266.7%" filterUnits="objectBoundingBox" id="filter-2">
            <feOffset dx="0" dy="5" in="SourceAlpha" result="shadowOffsetOuter1"></feOffset>
            <feGaussianBlur stdDeviation="7.5" in="shadowOffsetOuter1" result="shadowBlurOuter1"></feGaussianBlur>
            <feColorMatrix values="0 0 0 0 0   0 0 0 0 0   0 0 0 0 0  0 0 0 0.1 0" type="matrix" in="shadowBlurOuter1"></feColorMatrix>
        </filter>
    </defs>
    <g id="Flower-Detail" stroke="none" stroke-width="1" fill="none" fill-rule="evenodd" transform="translate(-335.000000, -261.000000)">
        <g id="star-white" transform="translate(350.000000, 271.000000)">
            <g id="Oval">
                <use fill="black" fill-opacity="1" filter="url(#filter-2)" xlink:href="#path-1"></use>
                <use fill="#FFFFFF" fill-rule="evenodd" xlink:href="#path-1"></use>
            </g>
            <g id="star" transform="translate(9.000000, 9.000000)" fill="#D4D8D9">
                <path d="M12.7184444,5.43852866 C12.9738847,5.19713674 13.0640209,4.84570772 12.9537098,4.5174774 C12.8430732,4.18924709 12.5557435,3.95537907 12.2010557,3.90647369 L9.0537707,3.46569831 C8.91905441,3.44594806 8.80353681,3.36537959 8.74366291,3.24875908 L7.33662607,0.500966613 C7.17880625,0.19217305 6.8573094,0 6.50034376,0 C6.14305273,0 5.82285748,0.19217305 5.66373606,0.500966613 L4.25669922,3.24875908 C4.19682531,3.36537959 4.08130772,3.44720205 3.94659142,3.46569831 L0.799306431,3.90647369 C0.444618606,3.95537907 0.155987321,4.18924709 0.045676153,4.5174774 C-0.0636588096,4.84570772 0.0264774542,5.19839072 0.281917769,5.43852866 L2.55972949,7.5765714 C2.65637379,7.66842573 2.70095382,7.79946706 2.6778503,7.92800042 L2.14028673,10.9479074 C2.09342889,11.213752 2.16566806,11.4733267 2.34366278,11.6764721 C2.62220661,11.9949841 3.1064043,12.0918543 3.4939577,11.8946653 L6.30835678,10.469199 C6.42647758,10.4090078 6.57388454,10.4102618 6.69200535,10.469199 L9.50770604,11.8946653 C9.64372394,11.9642615 9.78982929,12 9.94114107,12 C10.2157801,12 10.477403,11.882439 10.6566993,11.6764721 C10.8346941,11.4733267 10.9072586,11.213752 10.8600754,10.9479074 L10.3225118,7.92800042 C10.2994083,7.79946706 10.3439883,7.66842573 10.4406326,7.5765714 L12.7184444,5.43852866 Z" id="Fill-1"></path>
            </g>
        </g>
    </g>
</svg>